<svg width="103" height="46" viewBox="0 0 103 46" fill="none" xmlns="http://www.w3.org/2000/svg">
<path d="M0 45.12H32.192V36.16H10.24V27.008H28.992V18.048H10.24V8.96H32.192V0H0V45.12Z" fill="black"/>
<path d="M69.7358 0V18.688H47.0798V0H36.8398V45.12H47.0798V27.648H69.7358V45.12H79.9758V0H69.7358Z" fill="black"/>
<path d="M89.92 0L91.84 28.544H98.24L100.16 0H89.92ZM94.976 45.76C99.2 45.76 102.08 42.688 102.08 38.656C102.08 34.752 99.2 31.68 94.976 31.68C90.624 31.68 88 34.752 88 38.656C88 42.688 90.624 45.76 94.976 45.76Z" fill="black"/>
</svg>
