<svg width="424" height="752" viewBox="0 0 424 752" fill="none" xmlns="http://www.w3.org/2000/svg">
<path d="M393.443 327.9L400 321.405C406.148 315.315 406.518 305.501 400.846 298.966C395.463 292.764 395.487 283.54 400.902 277.366L412.18 264.507C423.344 251.779 424.14 232.995 414.094 219.368L408.56 211.861C405.674 207.947 403.405 203.613 401.832 199.011L390.567 166.069C386.27 153.501 386.666 139.802 391.682 127.503L393.598 122.805C400.19 106.643 398.008 88.2267 387.823 74.0517C381.722 65.5614 373.147 59.1636 363.271 55.7339L337.15 46.6627C328.932 43.8089 321.509 39.0465 315.489 32.7666L306.045 22.915C301.546 18.221 296.249 14.3622 290.402 11.5176L283.072 7.95148C264.861 -0.908732 243.253 0.956578 226.829 12.8068L209.563 25.2649C204.421 28.9748 199.96 33.5459 196.376 38.776L168.477 79.4859C165.267 84.171 162.801 89.3252 161.168 94.7651L146.591 143.332C144.394 150.65 140.697 157.43 135.735 163.24L104.551 199.751C101.048 203.853 98.8826 208.927 98.3452 214.295L97.6596 221.141C95.7992 239.722 115.746 252.612 131.922 243.282C134.892 241.569 137.44 239.211 139.378 236.383L147.447 224.608C156.423 211.511 171.508 203.956 187.372 204.612C198.263 205.063 208.961 201.64 217.566 194.95L228.544 186.415C236.775 180.016 241.731 170.286 242.068 159.865L242.102 158.809C242.296 152.813 244.201 146.997 247.592 142.048L248.772 140.326C258.878 125.58 279.646 123.08 292.961 135.009C303.47 144.422 305.878 159.942 298.718 172.098L285.255 194.953C279.672 204.43 271.376 212.016 261.439 216.73L241.469 226.204C233.694 229.892 226.893 235.353 221.613 242.148L164.612 315.502C158.882 322.875 155.123 331.587 153.691 340.815L147.591 380.124C146.327 388.267 146.909 396.589 149.294 404.476L178.778 501.993C179.823 505.447 180.524 508.994 180.874 512.585L187.932 585.125L186.659 624.513C185.879 648.681 169.405 669.504 146.065 675.825L124.27 681.728C108.715 685.94 92.0953 683.119 78.802 674.009L76.046 672.12C59.6773 660.903 50.6201 641.738 52.3453 621.97L53.5623 608.024C53.8815 604.366 54.8908 600.801 56.5366 597.518L60.9293 588.757C68.6491 573.359 89.9071 571.542 100.128 585.406C103.212 589.59 107.619 592.61 112.634 593.977L118.137 595.476C134.564 599.952 151.23 589.142 153.841 572.318C155.526 561.465 150.833 550.608 141.773 544.4L117.09 527.485C101.14 516.555 80.6233 514.802 63.0515 522.869L51.0214 528.392C36.3039 535.149 25.3121 548.048 20.9763 563.651L4.59424 622.606C0.45615 637.498 2.77509 653.443 10.9834 666.54L37.1464 708.283C44.1765 719.5 55.0163 727.805 67.676 731.673L119.187 747.414C124.562 749.057 130.158 749.866 135.779 749.813L170.115 749.489C182.163 749.375 193.841 745.308 203.353 737.913L230.766 716.601C239.788 709.587 246.401 699.937 249.687 688.992L259.934 654.85C263.234 643.856 263.012 632.105 259.298 621.244L249.447 592.433C246.35 583.376 245.888 573.625 248.114 564.315L251.07 551.956C252.942 544.126 258.42 537.649 265.831 534.502C273.802 531.118 282.948 532.033 290.091 536.928L296.412 541.26L311.115 548.748C329.34 558.03 351.311 546.79 354.447 526.58C355.291 521.141 354.625 515.575 352.522 510.489L339.294 478.498C333.373 464.179 336.697 447.701 347.705 436.796C353.505 431.052 357.31 423.599 358.562 415.533L359.649 408.525C360.969 400.022 366.071 392.577 373.524 388.278C383.77 382.368 389.281 370.727 387.358 359.057L386.005 350.849C384.621 342.446 387.393 333.893 393.443 327.9Z" stroke="#0805A1" stroke-width="4"/>
</svg>
